<svg id="visual" viewBox="0 0 960 300" width="960" height="300" xmlns="http://www.w3.org/2000/svg" xmlns:xlink="http://www.w3.org/1999/xlink" version="1.1"><rect x="0" y="0" width="960" height="300" fill="#012"></rect><path d="M0 119L12.3 123.5C24.7 128 49.3 137 74 140.8C98.7 144.7 123.3 143.3 148 133.5C172.7 123.7 197.3 105.3 221.8 98C246.3 90.7 270.7 94.3 295.2 103C319.7 111.7 344.3 125.3 369 125.3C393.7 125.3 418.3 111.7 443 109.7C467.7 107.7 492.3 117.3 517 116.7C541.7 116 566.3 105 591 102.8C615.7 100.7 640.3 107.3 664.8 116C689.3 124.7 713.7 135.3 738.2 131C762.7 126.7 787.3 107.3 812 97.8C836.7 88.3 861.3 88.7 886 88.2C910.7 87.7 935.3 86.3 947.7 85.7L960 85L960 0L947.7 0C935.3 0 910.7 0 886 0C861.3 0 836.7 0 812 0C787.3 0 762.7 0 738.2 0C713.7 0 689.3 0 664.8 0C640.3 0 615.7 0 591 0C566.3 0 541.7 0 517 0C492.3 0 467.7 0 443 0C418.3 0 393.7 0 369 0C344.3 0 319.7 0 295.2 0C270.7 0 246.3 0 221.8 0C197.3 0 172.7 0 148 0C123.3 0 98.7 0 74 0C49.3 0 24.7 0 12.3 0L0 0Z" fill="#e89829"></path><path d="M0 110L12.3 112C24.7 114 49.3 118 74 119.7C98.7 121.3 123.3 120.7 148 119C172.7 117.3 197.3 114.7 221.8 109C246.3 103.3 270.7 94.7 295.2 89.8C319.7 85 344.3 84 369 84.8C393.7 85.7 418.3 88.3 443 93.2C467.7 98 492.3 105 517 108C541.7 111 566.3 110 591 110.8C615.7 111.7 640.3 114.3 664.8 113C689.3 111.7 713.7 106.3 738.2 102.5C762.7 98.7 787.3 96.3 812 98.2C836.7 100 861.3 106 886 109.8C910.7 113.7 935.3 115.3 947.7 116.2L960 117L960 0L947.7 0C935.3 0 910.7 0 886 0C861.3 0 836.7 0 812 0C787.3 0 762.7 0 738.2 0C713.7 0 689.3 0 664.8 0C640.3 0 615.7 0 591 0C566.3 0 541.7 0 517 0C492.3 0 467.7 0 443 0C418.3 0 393.7 0 369 0C344.3 0 319.7 0 295.2 0C270.7 0 246.3 0 221.8 0C197.3 0 172.7 0 148 0C123.3 0 98.7 0 74 0C49.3 0 24.7 0 12.3 0L0 0Z" fill="#e88c23"></path><path d="M0 70L12.3 74.3C24.7 78.7 49.3 87.3 74 85C98.7 82.7 123.3 69.3 148 71C172.7 72.7 197.3 89.3 221.8 89.2C246.3 89 270.7 72 295.2 71.3C319.7 70.7 344.3 86.3 369 88.8C393.7 91.3 418.3 80.7 443 76.2C467.7 71.7 492.3 73.3 517 71.3C541.7 69.3 566.3 63.7 591 68.8C615.7 74 640.3 90 664.8 94.3C689.3 98.7 713.7 91.3 738.2 82.8C762.7 74.3 787.3 64.7 812 68C836.7 71.3 861.3 87.7 886 94.2C910.7 100.7 935.3 97.3 947.7 95.7L960 94L960 0L947.7 0C935.3 0 910.7 0 886 0C861.3 0 836.7 0 812 0C787.3 0 762.7 0 738.2 0C713.7 0 689.3 0 664.8 0C640.3 0 615.7 0 591 0C566.3 0 541.7 0 517 0C492.3 0 467.7 0 443 0C418.3 0 393.7 0 369 0C344.3 0 319.7 0 295.2 0C270.7 0 246.3 0 221.8 0C197.3 0 172.7 0 148 0C123.3 0 98.7 0 74 0C49.3 0 24.7 0 12.3 0L0 0Z" fill="#e87f1e"></path><path d="M0 58L12.3 59.5C24.7 61 49.3 64 74 64.8C98.7 65.7 123.3 64.3 148 65.3C172.7 66.3 197.3 69.7 221.8 71.2C246.3 72.7 270.7 72.3 295.2 74C319.7 75.7 344.3 79.3 369 77.3C393.7 75.3 418.3 67.7 443 65C467.7 62.3 492.3 64.7 517 66.3C541.7 68 566.3 69 591 68.5C615.7 68 640.3 66 664.8 64.7C689.3 63.3 713.7 62.7 738.2 66.2C762.7 69.7 787.3 77.3 812 73.5C836.7 69.7 861.3 54.3 886 49.8C910.7 45.3 935.3 51.7 947.7 54.8L960 58L960 0L947.7 0C935.3 0 910.7 0 886 0C861.3 0 836.7 0 812 0C787.3 0 762.7 0 738.2 0C713.7 0 689.3 0 664.8 0C640.3 0 615.7 0 591 0C566.3 0 541.7 0 517 0C492.3 0 467.7 0 443 0C418.3 0 393.7 0 369 0C344.3 0 319.7 0 295.2 0C270.7 0 246.3 0 221.8 0C197.3 0 172.7 0 148 0C123.3 0 98.7 0 74 0C49.3 0 24.7 0 12.3 0L0 0Z" fill="#e8721c"></path><path d="M0 25L12.3 29.8C24.7 34.7 49.3 44.3 74 45.7C98.7 47 123.3 40 148 38.7C172.7 37.3 197.3 41.7 221.8 40C246.3 38.3 270.7 30.7 295.2 31.7C319.7 32.7 344.3 42.3 369 43.5C393.7 44.7 418.3 37.3 443 38.3C467.7 39.3 492.3 48.7 517 50.3C541.7 52 566.3 46 591 42.2C615.7 38.3 640.3 36.7 664.8 37.2C689.3 37.7 713.7 40.3 738.2 41C762.7 41.7 787.3 40.3 812 42.5C836.7 44.7 861.3 50.3 886 49C910.7 47.7 935.3 39.3 947.7 35.2L960 31L960 0L947.7 0C935.3 0 910.7 0 886 0C861.3 0 836.7 0 812 0C787.3 0 762.7 0 738.2 0C713.7 0 689.3 0 664.8 0C640.3 0 615.7 0 591 0C566.3 0 541.7 0 517 0C492.3 0 467.7 0 443 0C418.3 0 393.7 0 369 0C344.3 0 319.7 0 295.2 0C270.7 0 246.3 0 221.8 0C197.3 0 172.7 0 148 0C123.3 0 98.7 0 74 0C49.3 0 24.7 0 12.3 0L0 0Z" fill="#e7651c"></path><path d="M0 28L12.3 25.5C24.7 23 49.3 18 74 17.3C98.7 16.7 123.3 20.3 148 23.3C172.7 26.3 197.3 28.7 221.8 28.2C246.3 27.7 270.7 24.3 295.2 23.8C319.7 23.3 344.3 25.7 369 27.3C393.7 29 418.3 30 443 27.7C467.7 25.3 492.3 19.7 517 16.7C541.7 13.7 566.3 13.3 591 17.5C615.7 21.7 640.3 30.3 664.8 34.2C689.3 38 713.7 37 738.2 33.5C762.7 30 787.3 24 812 22.5C836.7 21 861.3 24 886 25.5C910.7 27 935.3 27 947.7 27L960 27L960 0L947.7 0C935.3 0 910.7 0 886 0C861.3 0 836.7 0 812 0C787.3 0 762.7 0 738.2 0C713.7 0 689.3 0 664.8 0C640.3 0 615.7 0 591 0C566.3 0 541.7 0 517 0C492.3 0 467.7 0 443 0C418.3 0 393.7 0 369 0C344.3 0 319.7 0 295.2 0C270.7 0 246.3 0 221.8 0C197.3 0 172.7 0 148 0C123.3 0 98.7 0 74 0C49.3 0 24.7 0 12.3 0L0 0Z" fill="#e5561e"></path></svg>